<mxfile host="app.diagrams.net" modified="2022-04-14T15:21:58.769Z" agent="5.0 (Windows NT 10.0; Win64; x64) AppleWebKit/537.36 (KHTML, like Gecko) Chrome/100.0.4896.75 Safari/537.36 Edg/100.0.1185.36" etag="hb5_YRpbTIJdUkxDNC9A" version="17.4.4" type="github">
  <diagram id="ggKhiA-MEm7EH-LAjlCG" name="Page-1">
    <mxGraphModel dx="1422" dy="786" grid="1" gridSize="10" guides="1" tooltips="1" connect="1" arrows="1" fold="1" page="1" pageScale="1" pageWidth="827" pageHeight="1169" math="0" shadow="0">
      <root>
        <mxCell id="0" />
        <mxCell id="1" parent="0" />
        <mxCell id="SpZ6nx0x9VD4QV0NILSI-11" value="" style="edgeStyle=orthogonalEdgeStyle;rounded=0;orthogonalLoop=1;jettySize=auto;html=1;" edge="1" parent="1" source="SpZ6nx0x9VD4QV0NILSI-1" target="SpZ6nx0x9VD4QV0NILSI-10">
          <mxGeometry relative="1" as="geometry" />
        </mxCell>
        <mxCell id="SpZ6nx0x9VD4QV0NILSI-1" value="Inicio" style="rounded=1;whiteSpace=wrap;html=1;fillColor=#dae8fc;strokeColor=#6c8ebf;" vertex="1" parent="1">
          <mxGeometry x="180" y="140" width="80" height="30" as="geometry" />
        </mxCell>
        <mxCell id="SpZ6nx0x9VD4QV0NILSI-13" value="" style="edgeStyle=orthogonalEdgeStyle;rounded=0;orthogonalLoop=1;jettySize=auto;html=1;" edge="1" parent="1" source="SpZ6nx0x9VD4QV0NILSI-10" target="SpZ6nx0x9VD4QV0NILSI-12">
          <mxGeometry relative="1" as="geometry" />
        </mxCell>
        <mxCell id="SpZ6nx0x9VD4QV0NILSI-10" value="Vehículo&lt;br&gt;GPS" style="rounded=0;whiteSpace=wrap;html=1;" vertex="1" parent="1">
          <mxGeometry x="180" y="210" width="80" height="40" as="geometry" />
        </mxCell>
        <mxCell id="SpZ6nx0x9VD4QV0NILSI-58" value="" style="edgeStyle=orthogonalEdgeStyle;rounded=0;orthogonalLoop=1;jettySize=auto;html=1;" edge="1" parent="1" source="SpZ6nx0x9VD4QV0NILSI-12" target="SpZ6nx0x9VD4QV0NILSI-57">
          <mxGeometry relative="1" as="geometry" />
        </mxCell>
        <mxCell id="SpZ6nx0x9VD4QV0NILSI-12" value="Proveedor&amp;nbsp;&lt;br&gt;GPS" style="rounded=0;whiteSpace=wrap;html=1;" vertex="1" parent="1">
          <mxGeometry x="180" y="290" width="80" height="40" as="geometry" />
        </mxCell>
        <mxCell id="SpZ6nx0x9VD4QV0NILSI-19" value="" style="edgeStyle=orthogonalEdgeStyle;rounded=0;orthogonalLoop=1;jettySize=auto;html=1;" edge="1" parent="1" target="SpZ6nx0x9VD4QV0NILSI-18">
          <mxGeometry relative="1" as="geometry">
            <mxPoint x="519" y="330" as="sourcePoint" />
          </mxGeometry>
        </mxCell>
        <mxCell id="SpZ6nx0x9VD4QV0NILSI-15" value="Endpoint" style="rounded=0;whiteSpace=wrap;html=1;" vertex="1" parent="1">
          <mxGeometry x="479" y="290" width="80" height="40" as="geometry" />
        </mxCell>
        <mxCell id="SpZ6nx0x9VD4QV0NILSI-21" value="" style="edgeStyle=orthogonalEdgeStyle;rounded=0;orthogonalLoop=1;jettySize=auto;html=1;" edge="1" parent="1" source="SpZ6nx0x9VD4QV0NILSI-18" target="SpZ6nx0x9VD4QV0NILSI-20">
          <mxGeometry relative="1" as="geometry">
            <Array as="points">
              <mxPoint x="385" y="430" />
            </Array>
          </mxGeometry>
        </mxCell>
        <mxCell id="SpZ6nx0x9VD4QV0NILSI-24" value="" style="edgeStyle=orthogonalEdgeStyle;rounded=0;orthogonalLoop=1;jettySize=auto;html=1;entryX=0.5;entryY=0;entryDx=0;entryDy=0;" edge="1" parent="1" source="SpZ6nx0x9VD4QV0NILSI-18" target="SpZ6nx0x9VD4QV0NILSI-38">
          <mxGeometry relative="1" as="geometry">
            <mxPoint x="665" y="450" as="targetPoint" />
            <Array as="points">
              <mxPoint x="665" y="430" />
            </Array>
          </mxGeometry>
        </mxCell>
        <mxCell id="SpZ6nx0x9VD4QV0NILSI-18" value="¿Token &lt;br&gt;Valido?" style="rhombus;whiteSpace=wrap;html=1;rounded=0;" vertex="1" parent="1">
          <mxGeometry x="479" y="390" width="80" height="80" as="geometry" />
        </mxCell>
        <mxCell id="SpZ6nx0x9VD4QV0NILSI-20" value="" style="whiteSpace=wrap;html=1;rounded=0;" vertex="1" parent="1">
          <mxGeometry x="345" y="450" width="80" height="40" as="geometry" />
        </mxCell>
        <mxCell id="SpZ6nx0x9VD4QV0NILSI-22" value="No" style="text;html=1;resizable=0;autosize=1;align=center;verticalAlign=middle;points=[];fillColor=none;strokeColor=none;rounded=0;fontStyle=1" vertex="1" parent="1">
          <mxGeometry x="415" y="410" width="30" height="20" as="geometry" />
        </mxCell>
        <mxCell id="SpZ6nx0x9VD4QV0NILSI-25" value="Si" style="text;html=1;resizable=0;autosize=1;align=center;verticalAlign=middle;points=[];fillColor=none;strokeColor=none;rounded=0;fontStyle=1" vertex="1" parent="1">
          <mxGeometry x="605" y="410" width="30" height="20" as="geometry" />
        </mxCell>
        <mxCell id="SpZ6nx0x9VD4QV0NILSI-28" value="" style="edgeStyle=orthogonalEdgeStyle;rounded=0;orthogonalLoop=1;jettySize=auto;html=1;" edge="1" parent="1" source="SpZ6nx0x9VD4QV0NILSI-26">
          <mxGeometry relative="1" as="geometry">
            <mxPoint x="665" y="609" as="targetPoint" />
          </mxGeometry>
        </mxCell>
        <mxCell id="SpZ6nx0x9VD4QV0NILSI-26" value="¿Datos &lt;br&gt;OK?" style="rhombus;whiteSpace=wrap;html=1;rounded=0;" vertex="1" parent="1">
          <mxGeometry x="625" y="489" width="80" height="80" as="geometry" />
        </mxCell>
        <mxCell id="SpZ6nx0x9VD4QV0NILSI-30" value="" style="edgeStyle=orthogonalEdgeStyle;rounded=0;orthogonalLoop=1;jettySize=auto;html=1;" edge="1" parent="1" target="SpZ6nx0x9VD4QV0NILSI-29">
          <mxGeometry relative="1" as="geometry">
            <mxPoint x="665" y="649" as="sourcePoint" />
          </mxGeometry>
        </mxCell>
        <mxCell id="SpZ6nx0x9VD4QV0NILSI-29" value="Respuesta OK (200)" style="whiteSpace=wrap;html=1;rounded=0;" vertex="1" parent="1">
          <mxGeometry x="624" y="610" width="80" height="40" as="geometry" />
        </mxCell>
        <mxCell id="SpZ6nx0x9VD4QV0NILSI-31" value="Si" style="text;html=1;resizable=0;autosize=1;align=center;verticalAlign=middle;points=[];fillColor=none;strokeColor=none;rounded=0;fontStyle=1" vertex="1" parent="1">
          <mxGeometry x="665" y="579" width="30" height="20" as="geometry" />
        </mxCell>
        <mxCell id="SpZ6nx0x9VD4QV0NILSI-32" value="Token &lt;br&gt;Valido" style="rhombus;whiteSpace=wrap;html=1;rounded=0;" vertex="1" parent="1">
          <mxGeometry x="479" y="390" width="80" height="80" as="geometry" />
        </mxCell>
        <mxCell id="SpZ6nx0x9VD4QV0NILSI-34" value="Si" style="text;html=1;resizable=0;autosize=1;align=center;verticalAlign=middle;points=[];fillColor=none;strokeColor=none;rounded=0;fontStyle=1" vertex="1" parent="1">
          <mxGeometry x="605" y="410" width="30" height="20" as="geometry" />
        </mxCell>
        <mxCell id="SpZ6nx0x9VD4QV0NILSI-35" value="" style="edgeStyle=orthogonalEdgeStyle;rounded=0;orthogonalLoop=1;jettySize=auto;html=1;" edge="1" source="SpZ6nx0x9VD4QV0NILSI-32" target="SpZ6nx0x9VD4QV0NILSI-36" parent="1">
          <mxGeometry relative="1" as="geometry">
            <Array as="points">
              <mxPoint x="385" y="430" />
            </Array>
          </mxGeometry>
        </mxCell>
        <mxCell id="SpZ6nx0x9VD4QV0NILSI-47" value="" style="edgeStyle=orthogonalEdgeStyle;rounded=0;orthogonalLoop=1;jettySize=auto;html=1;" edge="1" parent="1" source="SpZ6nx0x9VD4QV0NILSI-36">
          <mxGeometry relative="1" as="geometry">
            <mxPoint x="220" y="470" as="targetPoint" />
          </mxGeometry>
        </mxCell>
        <mxCell id="SpZ6nx0x9VD4QV0NILSI-36" value="Respuesta&amp;nbsp;&lt;br&gt;Error (403)" style="whiteSpace=wrap;html=1;rounded=0;" vertex="1" parent="1">
          <mxGeometry x="345" y="450" width="80" height="40" as="geometry" />
        </mxCell>
        <mxCell id="SpZ6nx0x9VD4QV0NILSI-37" value="No" style="text;html=1;resizable=0;autosize=1;align=center;verticalAlign=middle;points=[];fillColor=none;strokeColor=none;rounded=0;fontStyle=1" vertex="1" parent="1">
          <mxGeometry x="415" y="410" width="30" height="20" as="geometry" />
        </mxCell>
        <mxCell id="SpZ6nx0x9VD4QV0NILSI-38" value="Registro Correcto" style="rhombus;whiteSpace=wrap;html=1;rounded=0;" vertex="1" parent="1">
          <mxGeometry x="625" y="489" width="80" height="80" as="geometry" />
        </mxCell>
        <mxCell id="SpZ6nx0x9VD4QV0NILSI-41" value="" style="endArrow=classic;html=1;rounded=0;exitX=0;exitY=0.5;exitDx=0;exitDy=0;entryX=0.5;entryY=1;entryDx=0;entryDy=0;" edge="1" parent="1" source="SpZ6nx0x9VD4QV0NILSI-38" target="SpZ6nx0x9VD4QV0NILSI-36">
          <mxGeometry width="50" height="50" relative="1" as="geometry">
            <mxPoint x="535" y="400" as="sourcePoint" />
            <mxPoint x="385" y="529" as="targetPoint" />
            <Array as="points">
              <mxPoint x="385" y="530" />
            </Array>
          </mxGeometry>
        </mxCell>
        <mxCell id="SpZ6nx0x9VD4QV0NILSI-42" value="No" style="text;html=1;resizable=0;autosize=1;align=center;verticalAlign=middle;points=[];fillColor=none;strokeColor=none;rounded=0;fontStyle=1" vertex="1" parent="1">
          <mxGeometry x="495" y="510" width="30" height="20" as="geometry" />
        </mxCell>
        <mxCell id="SpZ6nx0x9VD4QV0NILSI-49" value="" style="endArrow=classic;html=1;rounded=0;entryX=0.5;entryY=1;entryDx=0;entryDy=0;exitX=0;exitY=0.5;exitDx=0;exitDy=0;" edge="1" parent="1" source="SpZ6nx0x9VD4QV0NILSI-29" target="SpZ6nx0x9VD4QV0NILSI-12">
          <mxGeometry width="50" height="50" relative="1" as="geometry">
            <mxPoint x="425" y="520" as="sourcePoint" />
            <mxPoint x="264" y="330" as="targetPoint" />
            <Array as="points">
              <mxPoint x="220" y="630" />
              <mxPoint x="220" y="500" />
            </Array>
          </mxGeometry>
        </mxCell>
        <mxCell id="SpZ6nx0x9VD4QV0NILSI-54" value="" style="edgeStyle=orthogonalEdgeStyle;rounded=0;orthogonalLoop=1;jettySize=auto;html=1;" edge="1" parent="1">
          <mxGeometry relative="1" as="geometry">
            <mxPoint x="436" y="310" as="sourcePoint" />
            <mxPoint x="479" y="310" as="targetPoint" />
          </mxGeometry>
        </mxCell>
        <mxCell id="SpZ6nx0x9VD4QV0NILSI-52" value="token y registro" style="shape=document;whiteSpace=wrap;html=1;boundedLbl=1;" vertex="1" parent="1">
          <mxGeometry x="381" y="290" width="79" height="40" as="geometry" />
        </mxCell>
        <mxCell id="SpZ6nx0x9VD4QV0NILSI-60" value="" style="edgeStyle=orthogonalEdgeStyle;rounded=0;orthogonalLoop=1;jettySize=auto;html=1;" edge="1" parent="1" source="SpZ6nx0x9VD4QV0NILSI-57" target="SpZ6nx0x9VD4QV0NILSI-52">
          <mxGeometry relative="1" as="geometry" />
        </mxCell>
        <mxCell id="SpZ6nx0x9VD4QV0NILSI-57" value="Envío de Datos" style="rounded=0;whiteSpace=wrap;html=1;" vertex="1" parent="1">
          <mxGeometry x="280" y="290" width="80" height="40" as="geometry" />
        </mxCell>
      </root>
    </mxGraphModel>
  </diagram>
</mxfile>
